Coordinates
version=1
nRows=11
nColumns=36
inDegrees=yes

Units are S.I. units (second, meters, Newtons, ...)
If the header above contains a line with 'inDegrees', this indicates whether rotational values are in degrees (yes) or radians (no).

endheader
time	pelvis_tilt	pelvis_list	pelvis_rotation	pelvis_tx	pelvis_ty	pelvis_tz	hip_flexion_r	hip_adduction_r	hip_rotation_r	knee_angle_r	knee_angle_r_beta	ankle_angle_r	subtalar_angle_r	mtp_angle_r	hip_flexion_l	hip_adduction_l	hip_rotation_l	knee_angle_l	knee_angle_l_beta	ankle_angle_l	subtalar_angle_l	mtp_angle_l	lumbar_extension	lumbar_bending	lumbar_rotation	arm_flex_r	arm_add_r	arm_rot_r	elbow_flex_r	pro_sup_r	arm_flex_l	arm_add_l	arm_rot_l	elbow_flex_l	pro_sup_l
      0.00000000	      5.90485894	     -2.43805097	      0.14415491	     -0.98265942	      1.23337286	     -0.06364923	     -6.96163581	      2.88690056	     -2.63577507	      6.99810389	      0.12213995	      0.22573988	    -18.19987540	     -6.15935717	     -7.28083019	     -2.96043153	     -0.49295622	      5.75872787	      0.10050876	      8.31932144	     -9.33978692	     -6.15935717	    -16.94559654	      4.65978806	      0.68909476	      7.68753467	    -11.67910675	      0.62521428	     29.14137557	     81.37322326	      3.16460698	     -9.01194607	      8.30416362	     31.42079885	     71.80632201
      0.00416670	      3.80485629	     -1.69807291	      0.09392072	     -0.98106425	      1.23067737	     -0.06388118	     -4.15304981	      2.35674268	     -2.23253277	      7.77507197	      0.13570061	      4.19371147	    -15.61946704	     -6.51406010	     -3.75709313	     -1.73529004	     -0.54026926	      7.21811035	      0.12597979	      8.17648869	     -8.55966426	     -6.51406010	    -13.60348272	      4.01791562	      0.51391492	      6.87329912	    -11.30106006	     -2.16214207	     28.71735843	     78.21311024	      3.31816120	     -8.51759231	      4.61613028	     29.58557431	     69.70673689
      0.00833330	      3.35564717	     -1.05774317	     -0.35063760	     -0.98157609	      1.23003422	     -0.06164557	     -3.78874843	      1.68124699	     -2.88855916	      7.18388595	      0.12538246	      5.03613742	    -14.90216894	     -6.61126166	     -3.14092490	     -1.18725724	     -1.54728798	      7.47775941	      0.13051152	      8.02460239	     -8.06645858	     -6.61126166	    -12.92802749	      2.91889028	      0.51167334	      6.55307624	    -11.18607635	     -2.56607189	     29.65619828	     76.99221658	      3.20582873	     -9.51460177	      4.83588511	     30.11765626	     69.28363842
      0.01250000	      3.74822161	     -0.77549956	     -0.48700570	     -0.98129702	      1.23141477	     -0.06192567	     -4.35190395	      1.30684349	     -3.66395007	      6.90573547	      0.12052782	      6.27355458	    -13.39427345	     -6.74845287	     -3.93651721	     -0.79627778	     -1.71292644	      7.00348158	      0.12223381	      8.21713354	     -7.91421977	     -6.74845287	    -13.30813778	      2.40184283	      1.00294340	      6.07481009	    -11.15852686	     -3.44221075	     30.22516867	     76.54997869	      3.80981377	    -10.47487347	      8.01009790	     29.65998841	     70.60093175
      0.01666670	      4.18354122	     -0.68677070	     -0.62045207	     -0.98127309	      1.23343676	     -0.06067351	     -5.00531265	      1.32450805	     -3.72621869	      6.49301068	      0.11332441	      6.62750917	    -13.29190395	     -6.84917999	     -4.68903065	     -0.69425889	     -1.96150722	      6.56560028	      0.11459134	      8.30192918	     -7.87373293	     -6.84917999	    -13.94276328	      2.19808281	      1.17212747	      5.87415356	    -11.04965425	     -3.64483255	     30.97394476	     75.00547061	      3.99564100	    -10.77437920	      8.50138966	     30.00273344	     69.80821692
      0.02083330	      4.49004881	     -0.64119436	     -0.52399537	     -0.98127241	      1.23388613	     -0.06090637	     -5.46410433	      1.36401368	     -4.10855958	      6.30409184	      0.11002716	      7.22814514	    -12.56137041	     -6.89724804	     -5.09743456	     -0.64179757	     -1.80584809	      6.39561770	      0.11162459	      8.31637024	     -7.98683949	     -6.89724804	    -14.35276047	      2.13900679	      1.52062528	      5.64543598	    -11.03125390	     -4.10747654	     31.30818407	     74.25073171	      4.85464164	    -10.97440001	     10.54295720	     29.19952018	     70.09208510
      0.02500000	      4.80726794	     -0.61863624	     -0.45029123	     -0.98115720	      1.23384903	     -0.06069939	     -5.95418480	      1.43466342	     -4.16272631	      6.13787538	      0.10712613	      7.43600938	    -12.50674022	     -6.98735965	     -5.50405868	     -0.63838522	     -1.66093500	      6.17101651	      0.10770456	      8.35697282	     -7.88437431	     -6.98735965	    -14.87152455	      2.08554604	      1.57251397	      5.54797682	    -10.95701472	     -4.29760132	     31.85073458	     72.71923540	      5.06543832	    -10.98590065	     10.59385060	     29.54045930	     69.01971647
      0.02916670	      4.97733168	     -0.61156723	     -0.34465522	     -0.98089677	      1.23295567	     -0.06096874	     -6.27937984	      1.48141934	     -4.27857774	      6.01340538	      0.10495372	      7.60078581	    -12.38479986	     -7.03283828	     -5.71677628	     -0.65276323	     -1.49471549	      6.00738826	      0.10484870	      8.27890520	     -8.01273734	     -7.03283828	    -15.11816900	      2.09199638	      1.56656620	      5.53118681	    -10.90113602	     -4.34966842	     32.04807530	     71.92687283	      5.32518942	    -10.93729700	     10.82795377	     29.46171110	     68.47578567
      0.03333330	      5.00456816	     -0.59543909	     -0.25914709	     -0.98146111	      1.23446547	     -0.06049691	     -6.40141314	      1.51929526	     -4.22873941	      5.92207970	      0.10335979	      7.60169039	    -12.54727366	     -7.18966542	     -5.75971228	     -0.67778979	     -1.36248106	      5.88096072	      0.10264213	      8.01974487	     -8.19901938	     -7.18966542	    -15.17232796	      2.06686696	      1.69119194	      5.46623034	    -10.87628884	     -4.08355525	     31.98710761	     69.70738790	      5.78699174	    -10.87652905	     11.66843552	     28.89633375	     66.86013268
      0.03750000	      5.15138497	     -0.60750996	     -0.17901305	     -0.98170353	      1.23404431	     -0.06095795	     -6.69489751	      1.55484775	     -4.22342885	      5.67115541	      0.09898033	      7.59658642	    -12.49416963	     -7.22886688	     -5.96635532	     -0.71319512	     -1.19906777	      5.70116966	      0.09950418	      7.92750527	     -8.07412841	     -7.22886688	    -15.48351363	      2.10443097	      1.64114592	      5.40395224	    -10.87851673	     -4.06813619	     32.50003513	     69.02959645	      5.88057431	    -10.90559141	     11.81850297	     29.25293912	     66.32531112
      0.04166670	      5.12699668	     -0.62632009	     -0.09614921	     -0.98099465	      1.23370024	     -0.06116270	     -6.77315055	      1.58396130	     -4.13551186	      5.46526811	      0.09538692	      7.42435891	    -12.65943548	     -7.26149105	     -5.99975964	     -0.75780421	     -1.04015512	      5.56660147	      0.09715552	      7.79953621	     -7.96661751	     -7.26149105	    -15.40656140	      2.15595927	      1.67001704	      5.40214569	    -10.91106005	     -3.81783238	     32.31110104	     68.99542510	      6.21691021	    -10.87601308	     12.54120604	     28.65340095	     66.15727004
